# Blender 4.4.0
# www.blender.org
mtllib marker_column_short_uv.mtl
o Cylinder
v 0.000000 0.000000 -0.100000
v 0.000000 1.500000 -0.100000
v 0.050000 0.000000 -0.086603
v 0.050000 1.500000 -0.086603
v 0.086603 0.000000 -0.050000
v 0.086603 1.500000 -0.050000
v 0.100000 0.000000 0.000000
v 0.100000 1.500000 0.000000
v 0.086603 0.000000 0.050000
v 0.086603 1.500000 0.050000
v 0.050000 0.000000 0.086603
v 0.050000 1.500000 0.086603
v 0.000000 0.000000 0.100000
v 0.000000 1.500000 0.100000
v -0.050000 0.000000 0.086603
v -0.050000 1.500000 0.086603
v -0.086603 0.000000 0.050000
v -0.086603 1.500000 0.050000
v -0.100000 0.000000 0.000000
v -0.100000 1.500000 0.000000
v -0.086603 0.000000 -0.050000
v -0.086603 1.500000 -0.050000
v -0.050000 0.000000 -0.086603
v -0.050000 1.500000 -0.086603
vn 0.2588 -0.0000 -0.9659
vn 0.7071 -0.0000 -0.7071
vn 0.9659 -0.0000 -0.2588
vn 0.9659 -0.0000 0.2588
vn 0.7071 -0.0000 0.7071
vn 0.2588 -0.0000 0.9659
vn -0.2588 -0.0000 0.9659
vn -0.7071 -0.0000 0.7071
vn -0.9659 -0.0000 0.2588
vn -0.9659 -0.0000 -0.2588
vn -0.7071 -0.0000 -0.7071
vn -0.2588 -0.0000 -0.9659
vt 1.000000 0.002662
vt 1.000000 0.215270
vt 0.916667 0.215270
vt 0.916667 0.002662
vt 0.833333 0.215270
vt 0.833333 0.002662
vt 0.750000 0.215270
vt 0.750000 0.002662
vt 0.666667 0.215270
vt 0.666667 0.002662
vt 0.583333 0.215270
vt 0.583333 0.002662
vt 0.500000 0.215270
vt 0.500000 0.002662
vt 0.416667 0.215270
vt 0.416667 0.002662
vt 0.333333 0.215270
vt 0.333333 0.002662
vt 0.250000 0.215270
vt 0.250000 0.002662
vt 0.166667 0.215270
vt 0.166667 0.002662
vt 0.083333 0.215270
vt 0.083333 0.002662
vt 0.000000 0.215270
vt 0.000000 0.002662
s 0
f 1/1/1 2/2/1 4/3/1 3/4/1
f 3/4/2 4/3/2 6/5/2 5/6/2
f 5/6/3 6/5/3 8/7/3 7/8/3
f 7/8/4 8/7/4 10/9/4 9/10/4
f 9/10/5 10/9/5 12/11/5 11/12/5
f 11/12/6 12/11/6 14/13/6 13/14/6
f 13/14/7 14/13/7 16/15/7 15/16/7
f 15/16/8 16/15/8 18/17/8 17/18/8
f 17/18/9 18/17/9 20/19/9 19/20/9
f 19/20/10 20/19/10 22/21/10 21/22/10
f 21/22/11 22/21/11 24/23/11 23/24/11
f 23/24/12 24/23/12 2/25/12 1/26/12
